<svg width="682.667" height="682.667" viewBox="0 -107 512.114 512" xmlns="http://www.w3.org/2000/svg" xmlns:xlink="http://www.w3.org/1999/xlink" overflow="hidden"><path d="M421.641 142.727C420.531 132.719 419.566 122.18 418.672 111.793 415.258 72.1133 413.336 56.5234 407.102 50.293 382.734 31.5234 355.73 16.4492 326.965 5.5625 291.977-6.09375 265.711 0.777344 248.898 25.9922 247.656 27.8398 246.227 29.5547 244.633 31.1133 230.996 19.9102 213.914 13.7461 196.266 13.6602 160.203 13.6602 137.48 53.707 130.168 129.535 110.555 121.227 89.5586 116.656 68.2656 116.063 21.332 116.063-2.84217e-14 169.137-2.84217e-14 218.461-2.84217e-14 247.203 35.9609 272.809 82.2344 277.469 82.5117 277.629 82.7969 277.773 83.0898 277.895 99.1445 281.996 115.672 283.957 132.242 283.723 167.148 282.93 201.836 277.977 235.57 268.961 236.633 269.418 237.777 269.656 238.934 269.66 239.18 269.66 264.875 270.004 330.754 286.473 357.516 293.609 385.047 297.488 412.742 298.016 443.93 298.016 468.547 291.352 485.531 278.102 503.441 263.645 513.297 241.445 512 218.461 512 184.508 479.934 157.766 421.641 142.727ZM196.266 30.7266C208.031 30.7891 219.504 34.375 229.207 41.0273 218.703 45.1797 207.555 47.4688 196.266 47.793 191.555 47.793 187.734 51.6133 187.734 56.3281 187.734 61.0391 191.555 64.8594 196.266 64.8594 215.078 64.6133 233.461 59.2188 249.422 49.2617 254.805 45.5703 259.438 40.8867 263.074 35.4648 275.43 16.9297 294.016 12.5859 321.543 21.7578 347.605 31.75 372.188 45.2422 394.605 61.8672 397.602 66.7148 399.934 93.6172 401.637 113.262 402.371 121.734 403.164 130.328 404.027 138.684 392.824 136.48 380.715 134.621 367.836 133.16 349.359 131.297 330.695 133.102 312.918 138.477 310.441 112.809 307.125 89.5039 307.09 89.2344 306.418 84.5664 302.094 81.3281 297.43 81.9961 292.762 82.6641 289.523 86.9922 290.191 91.6563 290.234 91.9297 293.855 117.445 296.32 144.273 285.258 148.742 274.551 154.055 264.293 160.152 224.648 163.469 184.785 163.301 145.168 159.656 145.391 154.246 145.699 148.566 146.125 142.59 149.164 100.828 159.676 30.7266 196.266 30.7266ZM204.449 203.691C183.969 203.742 163.293 202.438 145.043 200.688 144.973 199.066 144.633 189.992 144.77 176.793 156.125 177.945 177.195 179.582 205.414 179.582 214.801 179.582 225.043 179.387 235.902 178.953 224.938 186.949 214.426 195.336 204.449 203.691ZM17.0664 218.461C17.0664 177.363 33.082 133.129 68.2656 133.129 89.1602 133.871 109.703 138.719 128.727 147.395 127.23 171.723 127.66 191.617 127.871 198.867 103.844 196.055 87.1602 193.059 86.8359 192.996 82.1992 192.152 77.7539 195.227 76.9063 199.863 76.0625 204.5 79.1328 208.945 83.7734 209.793 117.203 215.531 150.973 219.086 184.867 220.434L179.344 225.227C174.438 229.496 169.695 233.641 165.086 237.586 142.871 255.531 114.41 263.863 86.0234 260.734 48.6406 257.57 17.0664 238.207 17.0664 218.461ZM475 264.652C449.793 284.34 400.008 286.207 334.875 269.918 310.355 263.789 291.355 259.855 276.848 257.297 282.309 255.59 287.691 253.883 292.84 252.176 314.281 245.008 353.176 254.172 372.777 260.711 377.254 262.199 382.094 259.777 383.582 255.301 385.07 250.824 382.648 245.984 378.172 244.496 368.461 241.262 318.438 225.637 287.445 235.965 243.883 251.063 198.715 261.051 152.848 265.734 161.25 261.68 169.102 256.574 176.215 250.539 180.855 246.57 185.645 242.398 190.574 238.098 222.488 210.277 262.254 175.656 304.648 159.266 324.051 151.316 345.094 148.188 365.969 150.145 381.383 151.816 396.691 154.383 411.809 157.824 442.879 165.172 494.934 182.844 494.934 218.461 496.09 236.164 488.676 253.348 475 264.652Z" fill="#FFFFFF"/></svg>