<svg width="512" height="512" viewBox="0 0 512 512" xmlns="http://www.w3.org/2000/svg" xmlns:xlink="http://www.w3.org/1999/xlink" id="Layer_1" overflow="hidden"><path d="M361.377 257.848C438.361 199.111 483.549 107.833 483.582 11 483.582 7.68628 480.896 4.99999 477.582 4.99999 408.518 4.98557 341.431 28.055 286.982 70.542 265.963 86.913 247.111 105.891 230.882 127.02 219.135 134.227 203.982 132.465 194.203 122.754 177.902 106.454 151.478 106.44 135.161 122.724L75.732 181.283C73.3732 183.61 73.3477 187.409 75.6751 189.768 75.6939 189.787 75.7129 189.806 75.732 189.825L110.116 223.785C127.897 241.25 154.724 245.683 177.178 234.866 177.158 234.94 177.136 235.012 177.116 235.085 176.556 237.159 177.147 239.373 178.666 240.892L195.971 258.2 153.633 267.173C150.391 267.86 148.32 271.044 149.006 274.286 149.247 275.422 149.812 276.464 150.633 277.285L171.933 298.585C167.126 295.709 161.895 293.609 156.433 292.364 154.695 291.971 152.953 291.664 151.27 291.454 149.164 291.186 147.044 291.044 144.921 291.029 130.734 290.908 117.099 296.514 107.1 306.579 96.7756 316.733 90.9692 330.613 90.988 345.094 90.987 348.349 93.5818 351.012 96.836 351.094L101.361 351.209C92.6039 363.331 88.9258 378.394 91.11 393.188 91.6704 395.994 94.1387 398.01 97 398L113.392 398C116.706 398 119.392 395.314 119.392 392 119.392 388.686 116.706 386 113.392 386L102.462 386C102.292 378 104.048 362.842 118.577 350.021 121.059 347.833 121.297 344.047 119.109 341.565 118.005 340.313 116.429 339.578 114.76 339.538L103.4 339.252C104.684 330.083 108.957 321.593 115.557 315.1 123.223 307.386 133.645 303.042 144.521 303.029L144.834 303.029C145.789 303.035 146.747 303.086 147.704 303.159 140.277 307.537 135.314 315.126 134.282 323.685L130.841 351.485C130.434 354.774 132.77 357.77 136.059 358.177 136.303 358.207 136.549 358.222 136.795 358.222 137.041 358.222 137.287 358.207 137.532 358.177L165.332 354.735C173.896 353.68 181.484 348.704 185.864 341.269 185.95 342.35 186.009 343.44 186.011 344.538 186.04 355.552 181.662 366.121 173.854 373.889 171.479 376.2 171.427 379.999 173.738 382.374 176.049 384.748 179.848 384.8 182.223 382.489 182.262 382.451 182.3 382.413 182.338 382.374 194.02 370.702 199.651 354.285 197.592 337.9 197.392 336.227 197.1 334.526 196.726 332.842 195.488 327.295 193.37 321.981 190.453 317.103L211.3 337.948C213.643 340.291 217.442 340.29 219.785 337.947 220.557 337.175 221.103 336.207 221.366 335.148L231.588 293.817 247.15 309.38C248.662 310.89 250.862 311.483 252.928 310.938 253.287 310.838 253.642 310.738 254.001 310.638 242.755 333.204 247.066 360.419 264.736 378.404L298.693 413C299.799 414.201 301.332 414.919 302.962 415L302.962 415C304.593 414.92 306.126 414.202 307.232 413L365.762 353.5C382.048 337.156 382.048 310.718 365.762 294.374 356.115 284.636 354.309 269.592 361.377 257.848ZM471.521 17.061C471.156 35.3094 469.116 53.4857 465.427 71.361 445.14 60.1179 428.391 43.4394 417.062 23.2 434.987 19.4817 453.218 17.4267 471.521 17.061ZM118.545 215.247 88.487 185.561 143.61 131.24C155.236 119.615 174.084 119.615 185.71 131.24 194.533 140.013 206.798 144.411 219.186 143.246 203.789 166.09 191.495 190.877 182.626 216.959 164.125 233.289 136.148 232.541 118.545 215.247ZM177.145 331.424C175.416 337.555 170.176 342.049 163.853 342.824L143.695 345.324 146.195 325.171C147.023 318.721 151.684 313.419 157.975 311.771 166.457 309.606 175.088 314.727 177.252 323.209 177.942 325.911 177.907 328.746 177.15 331.43ZM212.268 321.947 166.939 276.619 206.092 268.319 221.676 283.9ZM253.177 298.436 189.62 234.879C190.687 231.106 191.831 227.356 193.053 223.631 193.089 223.595 193.126 223.563 193.162 223.531L193.105 223.474C222.386 134.818 291.101 64.7365 379.163 33.715 387.646 30.7397 396.231 28.1637 404.918 25.987 417.868 50.5791 438.007 70.6393 462.65 83.493 436.984 185.911 358.068 269.385 253.177 298.436ZM357.248 344.936 302.957 400.03 273.271 369.973C255.702 352.092 255.248 323.574 272.239 305.143 298.057 296.485 322.615 284.445 345.271 269.337 344.109 281.722 348.508 293.984 357.278 302.806 368.892 314.454 368.879 333.307 357.248 344.938Z" fill="#FFFFFF"/><path d="M154.21 384.878C151.029 385.631 147.769 386.008 144.5 386L135.048 386C131.734 386 129.048 388.686 129.048 392 129.048 395.314 131.734 398 135.048 398L144.5 398C148.709 398.008 152.905 397.52 157 396.548 160.223 395.776 162.209 392.538 161.438 389.315 160.666 386.093 157.428 384.106 154.205 384.878Z" fill="#FFFFFF"/><path d="M395.659 260.914C397.056 260.915 398.409 260.428 399.483 259.535 403.759 255.995 407.999 252.287 412.083 248.515 414.541 246.292 414.732 242.498 412.509 240.04 410.286 237.583 406.492 237.392 404.034 239.614 404.005 239.641 403.975 239.669 403.946 239.696 400.015 243.323 395.936 246.888 391.825 250.296 389.273 252.41 388.917 256.192 391.031 258.744 392.172 260.121 393.867 260.918 395.655 260.917Z" fill="#FFFFFF"/><path d="M494.754 102.88C491.582 101.921 488.233 103.715 487.274 106.886 487.274 106.887 487.274 106.887 487.274 106.887 482.222 123.582 475.71 139.8 467.812 155.353 464.936 161.016 461.833 166.666 458.591 172.145 454.606 178.876 450.301 185.537 445.791 191.945 438.637 202.102 430.86 211.806 422.505 221 420.276 223.452 420.458 227.247 422.91 229.476 425.362 231.705 429.157 231.523 431.386 229.071 440.074 219.507 448.161 209.413 455.6 198.849 460.29 192.187 464.769 185.259 468.914 178.256 472.287 172.556 475.514 166.679 478.508 160.787 486.725 144.605 493.501 127.73 498.757 110.359 499.716 107.188 497.924 103.841 494.754 102.88Z" fill="#FFFFFF"/><path d="M20.991 250.51C22.5824 250.512 24.109 249.88 25.233 248.753L29.828 244.158C32.1393 241.783 32.0879 237.985 29.7133 235.673 27.3842 233.406 23.6734 233.406 21.344 235.673L16.744 240.268C14.4012 242.612 14.4018 246.41 16.7453 248.753 17.8701 249.878 19.3955 250.51 20.986 250.51Z" fill="#FFFFFF"/><path d="M42.862 231.124 63.393 210.594C65.7363 208.251 65.7366 204.452 63.3935 202.108 61.0504 199.765 57.2513 199.765 54.908 202.108L34.378 222.638C32.0156 224.962 31.9842 228.761 34.3079 231.123 36.6316 233.485 40.4305 233.517 42.7929 231.193 42.8161 231.17 42.8392 231.147 42.862 231.124Z" fill="#FFFFFF"/><path d="M25.787 271.18C28.1301 273.523 31.9289 273.523 34.272 271.18L58.405 247.046C60.7481 244.703 60.7478 240.904 58.4045 238.561 56.0612 236.217 52.2621 236.218 49.919 238.561L25.786 262.694C23.4429 265.037 23.4431 268.836 25.7863 271.179 25.7865 271.18 25.7868 271.18 25.787 271.18Z" fill="#FFFFFF"/><path d="M65.961 237C67.5524 237.002 69.079 236.37 70.203 235.243L79.125 226.322C81.4874 223.998 81.5188 220.199 79.1951 217.837 76.8714 215.475 73.0725 215.443 70.7101 217.767 70.6869 217.79 70.6638 217.813 70.641 217.836L61.719 226.758C59.3762 229.102 59.3768 232.9 61.7203 235.243 62.8451 236.368 64.3705 237 65.961 237Z" fill="#FFFFFF"/><path d="M41.4 278.547 14.74 305.205C12.416 307.567 12.447 311.366 14.8091 313.69 17.1441 315.987 20.89 315.987 23.225 313.69L49.883 287.032C52.2451 284.708 52.2761 280.909 49.9521 278.547 47.6281 276.185 43.8293 276.154 41.4671 278.478 41.4439 278.501 41.4208 278.524 41.398 278.547Z" fill="#FFFFFF"/><path d="M94.856 233.573C92.513 231.231 88.715 231.231 86.372 233.573L55.141 264.8C52.7786 267.124 52.7472 270.923 55.0709 273.285 57.3946 275.647 61.1935 275.679 63.5559 273.355 63.5791 273.332 63.6022 273.309 63.625 273.286L94.856 242.054C97.1963 239.711 97.1963 235.916 94.856 233.573Z" fill="#FFFFFF"/><path d="M212.9 427.226 208.3 431.82C205.957 434.163 205.957 437.962 208.301 440.306 210.644 442.649 214.443 442.648 216.786 440.305L221.38 435.705C223.704 433.343 223.672 429.544 221.31 427.22 218.975 424.923 215.229 424.923 212.894 427.221Z" fill="#FFFFFF"/><path d="M246.461 393.661 225.931 414.191C223.556 416.502 223.504 420.301 225.815 422.676 228.126 425.05 231.925 425.102 234.3 422.791 234.339 422.753 234.377 422.715 234.415 422.676L254.945 402.146C257.256 399.771 257.205 395.973 254.83 393.661 252.501 391.394 248.79 391.394 246.461 393.661Z" fill="#FFFFFF"/><path d="M217.338 462.732C219.681 465.075 223.48 465.075 225.823 462.732L249.957 438.6C252.332 436.289 252.384 432.49 250.073 430.116 247.762 427.741 243.963 427.689 241.588 430 241.549 430.038 241.511 430.076 241.473 430.115L217.339 454.248C214.996 456.591 214.996 460.389 217.338 462.732Z" fill="#FFFFFF"/><path d="M253.271 426.8C255.614 429.143 259.413 429.144 261.756 426.801 261.757 426.8 261.757 426.8 261.757 426.8L270.678 417.878C273.021 415.534 273.021 411.735 270.677 409.392 268.333 407.049 264.534 407.049 262.191 409.393L253.271 418.314C250.928 420.657 250.927 424.456 253.27 426.799 253.271 426.8 253.271 426.8 253.271 426.8Z" fill="#FFFFFF"/><path d="M232.951 470.1 206.293 496.757C203.931 499.081 203.899 502.88 206.223 505.242 208.547 507.604 212.345 507.636 214.708 505.312 214.731 505.289 214.754 505.266 214.777 505.243L241.436 478.585C243.798 476.261 243.829 472.462 241.505 470.1 239.181 467.738 235.382 467.707 233.02 470.031 232.997 470.054 232.974 470.077 232.951 470.1Z" fill="#FFFFFF"/><path d="M277.925 425.125 246.693 456.357C244.331 458.681 244.3 462.48 246.624 464.842 248.948 467.204 252.747 467.235 255.109 464.911 255.132 464.888 255.155 464.865 255.178 464.842L286.409 433.611C288.771 431.287 288.803 427.488 286.479 425.126 284.155 422.764 280.357 422.732 277.994 425.056 277.971 425.079 277.948 425.102 277.925 425.125Z" fill="#FFFFFF"/><path d="M447.828 352.31C437.853 348.941 430.031 341.095 426.693 331.11 425.647 327.966 422.249 326.265 419.105 327.312 417.311 327.909 415.904 329.316 415.307 331.11 411.969 341.095 404.147 348.941 394.172 352.31 391.029 353.361 389.334 356.761 390.386 359.904 390.983 361.69 392.385 363.092 394.172 363.69 404.147 367.059 411.969 374.905 415.307 384.89 416.353 388.034 419.75 389.735 422.895 388.688 424.688 388.091 426.096 386.684 426.693 384.89 430.031 374.905 437.853 367.059 447.828 363.69 450.97 362.639 452.666 359.239 451.614 356.096 451.017 354.31 449.615 352.908 447.828 352.31ZM421 369.691C417.849 365.121 413.896 361.16 409.332 358 413.896 354.84 417.849 350.879 421 346.309 424.151 350.879 428.104 354.84 432.668 358 428.104 361.16 424.151 365.121 421 369.691Z" fill="#FFFFFF"/><path d="M22.172 122.69C32.147 126.059 39.9687 133.905 43.307 143.89 44.3534 147.034 47.7505 148.735 50.8947 147.688 52.6885 147.091 54.096 145.684 54.693 143.89 58.0313 133.905 65.853 126.059 75.828 122.69 78.9705 121.639 80.6657 118.239 79.6143 115.096 79.0166 113.31 77.6145 111.908 75.828 111.31 65.853 107.941 58.0313 100.095 54.693 90.11 53.6466 86.9659 50.2495 85.2653 47.1053 86.3117 45.3115 86.9087 43.904 88.3162 43.307 90.11 39.9687 100.095 32.147 107.941 22.172 111.31 19.0295 112.361 17.3343 115.761 18.3857 118.904 18.9834 120.69 20.3855 122.092 22.172 122.69ZM49 105.309C52.1509 109.879 56.1042 113.84 60.668 117 56.1042 120.16 52.1509 124.121 49 128.691 45.8491 124.121 41.8958 120.16 37.332 117 41.8958 113.84 45.8491 109.879 49 105.309Z" fill="#FFFFFF"/><ellipse cx="127.038" cy="54" rx="10.985" ry="11" fill="#FFFFFF"/><ellipse cx="402.038" cy="445" rx="10.985" ry="11" fill="#FFFFFF"/><path d="M336.744 107.968C312.521 107.982 292.895 127.629 292.909 151.853 292.922 176.076 312.57 195.702 336.793 195.688 348.409 195.681 359.547 191.068 367.765 182.859L367.765 182.859C384.897 165.727 384.898 137.95 367.765 120.817 359.538 112.59 348.379 107.968 336.743 107.968ZM359.28 174.374C346.834 186.821 326.654 186.821 314.208 174.375 301.761 161.929 301.76 141.75 314.206 129.303 326.652 116.856 346.832 116.856 359.279 129.302 359.279 129.302 359.28 129.303 359.28 129.303 371.706 141.757 371.706 161.92 359.28 174.374Z" fill="#FFFFFF"/></svg>